HIERARCHY
ROOT root
{
	OFFSET 0.000000 0.000000 0.000000
	CHANNELS 6 Xposition Yposition Zposition Zrotation Yrotation Xrotation
	JOINT lhip
	{
		OFFSET 0.058581 -0.082280 -0.017664
		CHANNELS 3 Zrotation Yrotation Xrotation
		JOINT lknee
		{
			OFFSET 0.043451 -0.386469 0.008037
			CHANNELS 3 Zrotation Yrotation Xrotation
			JOINT lankle
			{
				OFFSET -0.014790 -0.426874 -0.037428
				CHANNELS 3 Zrotation Yrotation Xrotation
				JOINT ltoe
				{
					OFFSET 0.041054 -0.060286 0.122042
					CHANNELS 3 Zrotation Yrotation Xrotation
					End Site
					{
						OFFSET 0.000000 0.000000 0.000000
					}
				}
			}
		}
	}
	JOINT rhip
	{
		OFFSET -0.060310 -0.090513 -0.013543
		CHANNELS 3 Zrotation Yrotation Xrotation
		JOINT rknee
		{
			OFFSET -0.043257 -0.383688 -0.004843
			CHANNELS 3 Zrotation Yrotation Xrotation
			JOINT rankle
			{
				OFFSET 0.019056 -0.420046 -0.034562
				CHANNELS 3 Zrotation Yrotation Xrotation
				JOINT rtoe
				{
					OFFSET -0.034840 -0.062106 0.130323
					CHANNELS 3 Zrotation Yrotation Xrotation
					End Site
					{
						OFFSET 0.000000 0.000000 0.000000
					}
				}
			}
		}
	}
	JOINT lowerback
	{
		OFFSET 0.004439 0.124404 -0.038385
		CHANNELS 3 Zrotation Yrotation Xrotation
		JOINT upperback
		{
			OFFSET 0.004488 0.137956 0.026820
			CHANNELS 3 Zrotation Yrotation Xrotation
			JOINT chest
			{
				OFFSET -0.002265 0.056032 0.002855
				CHANNELS 3 Zrotation Yrotation Xrotation
				JOINT lowerneck
				{
					OFFSET -0.013390 0.211636 -0.033468
					CHANNELS 3 Zrotation Yrotation Xrotation
					JOINT upperneck
					{
						OFFSET 0.010113 0.088937 0.050410
						CHANNELS 3 Zrotation Yrotation Xrotation
						End Site
						{
							OFFSET 0.000000 0.000000 0.000000
						}
					}
				}
				JOINT lclavicle
				{
					OFFSET 0.071702 0.114000 -0.018898
					CHANNELS 3 Zrotation Yrotation Xrotation
					JOINT lshoulder
					{
						OFFSET 0.122921 0.045205 -0.019046
						CHANNELS 3 Zrotation Yrotation Xrotation
						JOINT lelbow
						{
							OFFSET 0.255332 -0.015649 -0.022946
							CHANNELS 3 Zrotation Yrotation Xrotation
							JOINT lwrist
							{
								OFFSET 0.265709 0.012698 -0.007375
								CHANNELS 3 Zrotation Yrotation Xrotation
								End Site
								{
									OFFSET 0.000000 0.000000 0.000000
								}
							}
						}
					}
				}
				JOINT rclavicle
				{
					OFFSET -0.082954 0.112472 -0.023707
					CHANNELS 3 Zrotation Yrotation Xrotation
					JOINT rshoulder
					{
						OFFSET -0.113228 0.046853 -0.008472
						CHANNELS 3 Zrotation Yrotation Xrotation
						JOINT relbow
						{
							OFFSET -0.260127 -0.014369 -0.031269
							CHANNELS 3 Zrotation Yrotation Xrotation
							JOINT rwrist
							{
								OFFSET -0.269108 0.006794 -0.006027
								CHANNELS 3 Zrotation Yrotation Xrotation
								End Site
								{
									OFFSET 0.000000 0.000000 0.000000
								}
							}
						}
					}
				}
			}
		}
	}
}
MOTION
Frames: 11
Frame Time: 0.033333
0.245482 0.429134 0.977443 75.178349 0.237557 101.779216 -5.524025 -0.211641 -6.890581 -3.280486 -4.166356 -3.301313 8.771097 14.803810 -9.035190 0.000000 -0.000000 0.000000 -27.108667 -10.091725 0.469055 -2.240823 -2.683601 1.805530 21.441493 -16.640429 26.063746 0.000000 -0.000000 0.000000 -0.898670 3.319596 -6.095963 5.623218 -3.646880 -22.745724 5.165464 4.691794 10.160510 5.062264 34.308372 10.896576 2.275319 27.495301 -18.140788 31.572611 5.264315 -19.805927 13.033617 -17.443819 -17.878319 10.420530 -9.531705 -6.607557 -19.277917 -10.907856 -20.154583 -21.740769 -10.053539 -14.891990 -1.188632 1.519900 -19.154539 -125.321741 58.279897 -128.669558 16.939574 13.346685 -27.482183 
0.246238 0.428982 0.977215 74.990373 0.156510 101.545804 -5.722173 -0.050744 -6.354829 -3.112678 -4.685561 -3.745983 8.095020 15.380934 -9.111468 0.000000 -0.000000 0.000000 -27.298529 -10.483330 0.546216 -2.164086 -2.259373 1.958278 21.019176 -16.297443 26.025589 0.000000 -0.000000 0.000000 -1.061297 3.460509 -5.899492 5.508195 -3.660806 -22.918923 5.336004 4.811633 10.393082 5.199241 34.333436 10.775440 2.269165 27.345351 -17.955801 31.615640 5.325038 -19.809579 12.893414 -17.581214 -18.241221 10.240667 -9.617302 -6.657250 -19.439275 -11.189179 -20.577291 -21.756011 -10.050791 -14.912983 -1.110874 1.355613 -19.338455 -125.536519 58.337643 -128.841428 16.644224 13.277952 -27.569091 
0.246128 0.428990 0.977199 74.984212 0.165880 101.499422 -5.711071 -0.024681 -6.287591 -3.102144 -4.651607 -3.836095 8.259998 15.264962 -9.064166 0.000000 -0.000000 0.000000 -27.254478 -10.518004 0.602104 -2.215420 -2.260893 1.964396 21.022747 -16.235468 25.810489 0.000000 -0.000000 0.000000 -1.116602 3.456477 -5.875236 5.531138 -3.650794 -22.977918 5.386957 4.846398 10.537220 5.273691 34.465909 10.776637 2.297391 27.319858 -17.833126 31.603393 5.476125 -19.835243 12.772011 -17.740429 -18.199927 10.197185 -9.633650 -6.747080 -19.759049 -11.530762 -20.977627 -21.722512 -10.115723 -14.744131 -1.020628 1.580412 -19.448937 -125.106871 58.133993 -128.283563 16.785765 13.223000 -27.471538 
0.245741 0.429205 0.977319 75.092496 0.179086 101.415468 -5.682995 -0.123950 -6.307788 -3.115172 -4.662309 -3.664932 8.071748 15.392799 -9.013261 0.000000 -0.000000 0.000000 -27.201975 -10.715909 0.659380 -2.245560 -2.299595 1.992202 21.027150 -16.352171 25.816718 0.000000 -0.000000 0.000000 -1.053144 3.441495 -5.653349 5.474621 -3.698476 -23.277068 5.433909 4.904958 10.934047 5.034302 34.115228 10.788487 1.902819 27.216884 -18.163018 31.576482 5.695939 -20.120949 12.703873 -17.941211 -18.218323 9.851128 -9.593056 -6.829581 -18.194642 -10.835285 -20.698801 -21.674941 -10.305960 -15.229621 -1.008466 1.730764 -19.404986 -125.081526 58.303951 -128.452790 15.809308 12.717734 -27.378238 
0.245718 0.429286 0.977332 75.150715 0.191314 101.350621 -5.694044 -0.074267 -6.251378 -3.080672 -4.726165 -3.662456 8.006766 15.362372 -9.051907 0.000000 -0.000000 0.000000 -27.199035 -10.685849 0.742734 -2.225382 -2.461958 1.986063 20.971066 -16.345593 25.877429 0.000000 -0.000000 0.000000 -1.010631 3.426417 -5.724680 5.426312 -3.716355 -22.965403 5.397890 4.932288 10.760026 5.069954 34.281947 11.011359 1.786866 27.211440 -18.429136 31.571431 5.649105 -20.241062 12.605881 -18.050426 -18.276670 10.051550 -9.407852 -7.003846 -18.837983 -11.180158 -20.570271 -21.795007 -10.214544 -15.156215 -0.830552 1.595016 -19.309227 -125.005979 58.194709 -128.268513 16.480108 13.185880 -27.523481 
0.246023 0.429124 0.977131 75.045885 0.224999 101.289957 -5.657179 0.156662 -6.134790 -3.107090 -4.746319 -3.788737 7.995217 15.290665 -9.138817 0.000000 -0.000000 0.000000 -27.235196 -10.731928 0.787040 -2.168553 -2.345881 1.947846 20.934719 -16.222731 25.961464 0.000000 -0.000000 0.000000 -1.046296 3.505873 -5.919873 5.410057 -3.677614 -22.641450 5.332779 4.924354 10.678543 5.169040 34.569657 10.778142 1.813876 27.178055 -18.245282 31.604544 5.451226 -20.209811 12.713610 -17.910702 -18.225746 9.989737 -9.322929 -6.715053 -18.642465 -11.095505 -20.342377 -21.769266 -9.951834 -15.090533 -0.834337 1.334231 -19.366132 -125.092787 58.235014 -128.341093 16.197977 13.296283 -27.576098 
0.245571 0.429534 0.977184 75.171485 0.212936 101.319412 -5.689349 0.043930 -6.241666 -3.075345 -4.734799 -3.657704 8.028027 15.223625 -9.099018 0.000000 -0.000000 0.000000 -27.248397 -10.764455 0.747108 -2.153418 -2.426367 2.062707 20.907390 -16.197935 25.885110 0.000000 -0.000000 0.000000 -0.980438 3.448417 -5.900723 5.378278 -3.758681 -22.577518 5.237054 4.866443 10.502498 5.184790 34.451451 10.774886 1.882426 27.096898 -18.002048 31.623885 5.270640 -20.005125 12.769239 -17.663264 -18.317290 10.265841 -9.248379 -6.706348 -19.398984 -11.193804 -19.970511 -21.757711 -9.700072 -14.999036 -0.828898 1.266344 -19.409246 -124.949781 58.225932 -128.032378 16.890557 13.572060 -27.547836 
0.245197 0.429357 0.977204 75.212158 0.298892 101.234689 -5.588019 0.043844 -6.223567 -3.014730 -4.851160 -3.602415 8.305340 15.011607 -9.197134 0.000000 -0.000000 0.000000 -27.143718 -10.810771 0.830161 -2.180495 -2.467270 2.005989 20.994993 -16.229498 26.018223 0.000000 -0.000000 0.000000 -0.997656 3.450795 -5.872418 5.402850 -3.728630 -22.384922 5.305365 4.859887 10.505614 5.034153 34.518580 10.540862 1.687031 26.840006 -18.199721 31.602079 5.315389 -19.961316 12.760270 -17.781144 -18.753887 10.505370 -9.061898 -7.064501 -19.906630 -10.969294 -19.153980 -21.802315 -9.688405 -14.760074 -0.841976 1.153599 -19.585708 -124.793475 58.112610 -127.871357 17.305414 13.630420 -27.310778 
0.245040 0.429415 0.977194 75.219472 0.349233 101.212566 -5.545015 0.146669 -6.175730 -3.039898 -4.850421 -3.766462 8.173021 15.185533 -9.177322 0.000000 -0.000000 0.000000 -27.104199 -10.806315 0.873762 -2.113874 -2.444499 1.927193 20.850745 -16.337288 26.040415 0.000000 -0.000000 0.000000 -0.985788 3.460119 -5.953284 5.414806 -3.722706 -22.182380 5.247842 4.891897 10.322612 5.074475 34.382516 10.315170 1.983354 26.720983 -17.795562 31.600829 5.176354 -19.762600 12.985537 -17.632476 -18.710062 10.208361 -9.259040 -6.967942 -19.411511 -10.790499 -19.482938 -21.717066 -9.642236 -14.750331 -0.881528 1.196248 -19.565731 -124.919514 58.131240 -128.123903 16.629003 13.344694 -27.400861 
0.245224 0.429521 0.977439 75.033684 0.312327 101.090389 -5.659886 0.251447 -5.937535 -3.008856 -4.970429 -3.918288 7.998233 15.416381 -9.136241 0.000000 -0.000000 0.000000 -27.195762 -10.794612 0.831478 -2.155958 -2.519676 2.009955 20.973662 -16.359107 26.190905 0.000000 -0.000000 0.000000 -1.047848 3.487705 -6.123373 5.399459 -3.668754 -21.749787 5.180244 4.952951 10.198646 5.168702 34.353371 10.595062 2.040977 26.682749 -17.922941 31.666478 5.192767 -19.707896 12.946799 -17.535711 -18.561607 10.261537 -9.470539 -6.680695 -19.243407 -10.943419 -20.053043 -21.695653 -9.571102 -14.694075 -0.839299 1.188465 -19.622913 -125.017131 58.145048 -128.028183 16.466386 13.194403 -27.328420 
0.244659 0.429760 0.977889 75.089376 0.275841 101.057637 -5.714883 0.103246 -5.934127 -2.965630 -4.954342 -3.928219 8.231114 15.356541 -9.049856 0.000000 -0.000000 0.000000 -27.179877 -10.695520 0.782922 -2.220355 -2.721156 2.070099 20.915788 -16.485292 26.390942 0.000000 -0.000000 0.000000 -1.173255 3.439643 -5.891460 5.382929 -3.650367 -21.873841 5.318417 5.015878 10.196377 4.917299 34.139121 10.585389 2.050040 26.646439 -18.236764 31.681251 5.081600 -19.764331 12.898614 -17.450855 -18.510856 10.373134 -9.480827 -6.906899 -19.675629 -11.272068 -20.337698 -21.818865 -9.651454 -14.598779 -0.825251 0.983028 -19.701060 -125.010070 58.141170 -127.914335 17.045354 13.378496 -27.170460 
